<?xml version="1.0" encoding="UTF-8" standalone="no"?>
<!-- Created with Inkscape (http://www.inkscape.org/) -->

<svg
   xmlns:dc="http://purl.org/dc/elements/1.1/"
   xmlns:cc="http://creativecommons.org/ns#"
   xmlns:rdf="http://www.w3.org/1999/02/22-rdf-syntax-ns#"
   xmlns:svg="http://www.w3.org/2000/svg"
   xmlns="http://www.w3.org/2000/svg"
   xmlns:sodipodi="http://sodipodi.sourceforge.net/DTD/sodipodi-0.dtd"
   xmlns:inkscape="http://www.inkscape.org/namespaces/inkscape"
   width="1024"
   height="768"
   viewBox="0 0 1024 768"
   id="svg2"
   version="1.1"
   inkscape:version="0.91 r13725"
   sodipodi:docname="hash-map-overview.svg">
  <defs
     id="defs4" />
  <sodipodi:namedview
     id="base"
     pagecolor="#ffffff"
     bordercolor="#666666"
     borderopacity="1.0"
     inkscape:pageopacity="0.0"
     inkscape:pageshadow="2"
     inkscape:zoom="0.49497475"
     inkscape:cx="-12.984026"
     inkscape:cy="240.58497"
     inkscape:document-units="px"
     inkscape:current-layer="layer1"
     showgrid="false"
     units="px"
     inkscape:window-width="1600"
     inkscape:window-height="876"
     inkscape:window-x="0"
     inkscape:window-y="24"
     inkscape:window-maximized="1" />
  <metadata
     id="metadata7">
    <rdf:RDF>
      <cc:Work
         rdf:about="">
        <dc:format>image/svg+xml</dc:format>
        <dc:type
           rdf:resource="http://purl.org/dc/dcmitype/StillImage" />
        <dc:title></dc:title>
      </cc:Work>
    </rdf:RDF>
  </metadata>
  <g
     inkscape:label="Layer 1"
     inkscape:groupmode="layer"
     id="layer1"
     transform="translate(0,-284.3622)">
    <path
       style="fill:#ff0000;fill-rule:evenodd;stroke:#000000;stroke-width:0.71147144px;stroke-linecap:butt;stroke-linejoin:miter;stroke-opacity:1"
       id="path4141"
       sodipodi:type="arc"
       sodipodi:cx="519.09528"
       sodipodi:cy="377.39465"
       sodipodi:rx="55.197685"
       sodipodi:ry="28.428621"
       sodipodi:start="0"
       sodipodi:end="6.2312187"
       sodipodi:open="true"
       d="m 574.29296,377.39465 a 55.197685,28.428621 0 0 1 -54.4806,28.42623 55.197685,28.428621 0 0 1 -55.89614,-27.68764 55.197685,28.428621 0 0 1 53.02827,-29.14562 55.197685,28.428621 0 0 1 57.27396,26.93036" />
    <path
       style="fill:#1300ff;fill-opacity:1;fill-rule:evenodd;stroke:#000000;stroke-width:0.71147144px;stroke-linecap:butt;stroke-linejoin:miter;stroke-opacity:1"
       id="path4141-8"
       sodipodi:type="arc"
       sodipodi:cx="178.31032"
       sodipodi:cy="620.21814"
       sodipodi:rx="55.197685"
       sodipodi:ry="28.428621"
       sodipodi:start="0"
       sodipodi:end="6.2312187"
       sodipodi:open="true"
       d="m 233.508,620.21814 a 55.197685,28.428621 0 0 1 -54.48059,28.42622 55.197685,28.428621 0 0 1 -55.89615,-27.68763 55.197685,28.428621 0 0 1 53.02828,-29.14562 55.197685,28.428621 0 0 1 57.27395,26.93036" />
    <path
       style="fill:#1300ff;fill-opacity:1;fill-rule:evenodd;stroke:#000000;stroke-width:0.71147144px;stroke-linecap:butt;stroke-linejoin:miter;stroke-opacity:1"
       id="path4141-2"
       sodipodi:type="arc"
       sodipodi:cx="887.02325"
       sodipodi:cy="620.21814"
       sodipodi:rx="55.197685"
       sodipodi:ry="28.428621"
       sodipodi:start="0"
       sodipodi:end="6.2312187"
       sodipodi:open="true"
       d="m 942.22094,620.21814 a 55.197685,28.428621 0 0 1 -54.4806,28.42622 55.197685,28.428621 0 0 1 -55.89614,-27.68763 55.197685,28.428621 0 0 1 53.02827,-29.14562 55.197685,28.428621 0 0 1 57.27395,26.93036" />
    <path
       style="fill:#f8ff00;fill-opacity:1;fill-rule:evenodd;stroke:#000000;stroke-width:0.71147144px;stroke-linecap:butt;stroke-linejoin:miter;stroke-opacity:1"
       id="path4141-8-9"
       sodipodi:type="arc"
       sodipodi:cx="101.76386"
       sodipodi:cy="909.84351"
       sodipodi:rx="55.197685"
       sodipodi:ry="28.428621"
       sodipodi:start="0"
       sodipodi:end="6.2312187"
       sodipodi:open="true"
       d="m 156.96155,909.84351 a 55.197685,28.428621 0 0 1 -54.4806,28.42622 55.197685,28.428621 0 0 1 -55.896141,-27.68764 55.197685,28.428621 0 0 1 53.028271,-29.14562 55.197685,28.428621 0 0 1 57.27395,26.93036" />
    <path
       style="fill:#f8ff00;fill-opacity:1;fill-rule:evenodd;stroke:#000000;stroke-width:0.71147144px;stroke-linecap:butt;stroke-linejoin:miter;stroke-opacity:1"
       id="path4141-2-6"
       sodipodi:type="arc"
       sodipodi:cx="274.69644"
       sodipodi:cy="909.84351"
       sodipodi:rx="55.197685"
       sodipodi:ry="28.428621"
       sodipodi:start="0"
       sodipodi:end="6.2312187"
       sodipodi:open="true"
       d="m 329.89413,909.84351 a 55.197685,28.428621 0 0 1 -54.4806,28.42622 55.197685,28.428621 0 0 1 -55.89614,-27.68764 55.197685,28.428621 0 0 1 53.02827,-29.14562 55.197685,28.428621 0 0 1 57.27395,26.93036" />
    <path
       style="fill:#f8ff00;fill-opacity:1;fill-rule:evenodd;stroke:#000000;stroke-width:0.71147144px;stroke-linecap:butt;stroke-linejoin:miter;stroke-opacity:1"
       id="path4141-8-1"
       sodipodi:type="arc"
       sodipodi:cx="793.4942"
       sodipodi:cy="909.84351"
       sodipodi:rx="55.197685"
       sodipodi:ry="28.428621"
       sodipodi:start="0"
       sodipodi:end="6.2312187"
       sodipodi:open="true"
       d="m 848.69189,909.84351 a 55.197685,28.428621 0 0 1 -54.4806,28.42622 55.197685,28.428621 0 0 1 -55.89614,-27.68764 55.197685,28.428621 0 0 1 53.02827,-29.14562 55.197685,28.428621 0 0 1 57.27395,26.93036" />
    <path
       style="fill:#f8ff00;fill-opacity:1;fill-rule:evenodd;stroke:#000000;stroke-width:0.71147144px;stroke-linecap:butt;stroke-linejoin:miter;stroke-opacity:1"
       id="path4141-2-64"
       sodipodi:type="arc"
       sodipodi:cx="966.42682"
       sodipodi:cy="909.84351"
       sodipodi:rx="55.197685"
       sodipodi:ry="28.428621"
       sodipodi:start="0"
       sodipodi:end="6.2312187"
       sodipodi:open="true"
       d="m 1021.6245,909.84351 a 55.197685,28.428621 0 0 1 -54.48059,28.42622 55.197685,28.428621 0 0 1 -55.89614,-27.68764 55.197685,28.428621 0 0 1 53.02827,-29.14562 55.197685,28.428621 0 0 1 57.27396,26.93036" />
    <path
       style="fill:none;fill-rule:evenodd;stroke:#000000;stroke-width:1.89999998;stroke-linecap:butt;stroke-linejoin:miter;stroke-miterlimit:4;stroke-dasharray:none;stroke-opacity:1"
       d="M 869.82405,593.20512 554.52353,399.19431"
       id="path4302"
       inkscape:connector-type="polyline"
       inkscape:connector-curvature="3"
       inkscape:connection-start="#path4141-2"
       inkscape:connection-end="#path4141" />
    <path
       style="fill:none;fill-rule:evenodd;stroke:#000000;stroke-width:1.89999998;stroke-linecap:butt;stroke-linejoin:miter;stroke-miterlimit:4;stroke-dasharray:none;stroke-opacity:1"
       d="M 110.27351,881.75491 170.98012,648.39494"
       id="path4325"
       inkscape:connector-type="polyline"
       inkscape:connector-curvature="3"
       inkscape:connection-start="#path4141-8-9"
       inkscape:connection-end="#path4141-8" />
    <path
       style="fill:none;fill-rule:evenodd;stroke:#000000;stroke-width:1.89999998;stroke-linecap:butt;stroke-linejoin:miter;stroke-miterlimit:4;stroke-dasharray:none;stroke-opacity:1"
       d="M 257.13519,882.89258 186.74097,648.31268"
       id="path4331"
       inkscape:connector-type="polyline"
       inkscape:connector-curvature="3"
       inkscape:connection-start="#path4141-2-6"
       inkscape:connection-end="#path4141-8" />
    <path
       style="fill:none;fill-rule:evenodd;stroke:#000000;stroke-width:1.89999998;stroke-linecap:butt;stroke-linejoin:miter;stroke-miterlimit:4;stroke-dasharray:none;stroke-opacity:1"
       d="M 960.77025,881.56493 894.96164,648.35087"
       id="path4337"
       inkscape:connector-type="polyline"
       inkscape:connector-curvature="3"
       inkscape:connection-end="#path4141-2"
       inkscape:connection-start="#path4141-2-64" />
    <path
       style="fill:#1300ff;fill-opacity:1;fill-rule:evenodd;stroke:#000000;stroke-width:0.71147144px;stroke-linecap:butt;stroke-linejoin:miter;stroke-opacity:1"
       id="path4141-8-5"
       sodipodi:type="arc"
       sodipodi:cx="532.66681"
       sodipodi:cy="620.21814"
       sodipodi:rx="55.197685"
       sodipodi:ry="28.428621"
       sodipodi:start="0"
       sodipodi:end="6.2312187"
       sodipodi:open="true"
       d="m 587.86449,620.21814 a 55.197685,28.428621 0 0 1 -54.48059,28.42622 55.197685,28.428621 0 0 1 -55.89614,-27.68763 55.197685,28.428621 0 0 1 53.02827,-29.14562 55.197685,28.428621 0 0 1 57.27395,26.93036" />
    <path
       style="fill:#f8ff00;fill-opacity:1;fill-rule:evenodd;stroke:#000000;stroke-width:0.71147144px;stroke-linecap:butt;stroke-linejoin:miter;stroke-opacity:1"
       id="path4141-2-6-9"
       sodipodi:type="arc"
       sodipodi:cx="447.62903"
       sodipodi:cy="909.84351"
       sodipodi:rx="55.197685"
       sodipodi:ry="28.428621"
       sodipodi:start="0"
       sodipodi:end="6.2312187"
       sodipodi:open="true"
       d="m 502.82671,909.84351 a 55.197685,28.428621 0 0 1 -54.48059,28.42622 55.197685,28.428621 0 0 1 -55.89615,-27.68764 55.197685,28.428621 0 0 1 53.02828,-29.14562 55.197685,28.428621 0 0 1 57.27395,26.93036" />
    <path
       style="fill:#f8ff00;fill-opacity:1;fill-rule:evenodd;stroke:#000000;stroke-width:0.71147144px;stroke-linecap:butt;stroke-linejoin:miter;stroke-opacity:1"
       id="path4141-2-6-4"
       sodipodi:type="arc"
       sodipodi:cx="620.56158"
       sodipodi:cy="909.84351"
       sodipodi:rx="55.197685"
       sodipodi:ry="28.428621"
       sodipodi:start="0"
       sodipodi:end="6.2312187"
       sodipodi:open="true"
       d="m 675.75927,909.84351 a 55.197685,28.428621 0 0 1 -54.4806,28.42622 55.197685,28.428621 0 0 1 -55.89614,-27.68764 55.197685,28.428621 0 0 1 53.02827,-29.14562 55.197685,28.428621 0 0 1 57.27396,26.93036" />
    <path
       style="fill:none;fill-rule:evenodd;stroke:#000000;stroke-width:2;stroke-linecap:butt;stroke-linejoin:miter;stroke-miterlimit:4;stroke-dasharray:none;stroke-opacity:1"
       d="M 210.64449,597.17837 486.76055,400.43417"
       id="path4188"
       inkscape:connector-type="polyline"
       inkscape:connector-curvature="3"
       inkscape:connection-start="#path4141-8"
       inkscape:connection-end="#path4141" />
    <path
       style="fill:none;fill-rule:evenodd;stroke:#000000;stroke-width:2;stroke-linecap:butt;stroke-linejoin:miter;stroke-miterlimit:4;stroke-dasharray:none;stroke-opacity:1"
       d="M 531.07841,591.80158 520.6833,405.81107"
       id="path4192"
       inkscape:connector-type="polyline"
       inkscape:connector-curvature="3"
       inkscape:connection-start="#path4141-8-5"
       inkscape:connection-end="#path4141" />
    <path
       style="fill:none;fill-rule:evenodd;stroke:#000000;stroke-width:2;stroke-linecap:butt;stroke-linejoin:miter;stroke-miterlimit:4;stroke-dasharray:none;stroke-opacity:1"
       d="M 455.88181,881.73496 524.41353,648.32667"
       id="path4194"
       inkscape:connector-type="polyline"
       inkscape:connector-curvature="3"
       inkscape:connection-start="#path4141-2-6-9"
       inkscape:connection-end="#path4141-8-5" />
    <path
       style="fill:none;fill-rule:evenodd;stroke:#000000;stroke-width:2;stroke-linecap:butt;stroke-linejoin:miter;stroke-miterlimit:4;stroke-dasharray:none;stroke-opacity:1"
       d="M 612.03765,881.75643 541.19049,648.30529"
       id="path4196"
       inkscape:connector-type="polyline"
       inkscape:connector-curvature="3"
       inkscape:connection-start="#path4141-2-6-4"
       inkscape:connection-end="#path4141-8-5" />
    <path
       style="fill:none;fill-rule:evenodd;stroke:#000000;stroke-width:2;stroke-linecap:butt;stroke-linejoin:miter;stroke-opacity:1;stroke-miterlimit:4;stroke-dasharray:none"
       d="M 877.96708,648.26102 802.54991,881.80049"
       id="path4198"
       inkscape:connector-type="polyline"
       inkscape:connector-curvature="3"
       inkscape:connection-start="#path4141-2"
       inkscape:connection-end="#path4141-8-1" />
  </g>
</svg>
